<svg width="16" height="16" viewBox="0 0 16 16" fill="none" xmlns="http://www.w3.org/2000/svg">
<g clip-path="url(#clip0_301_13271)">
<rect width="16" height="16" fill="white"/>
<path d="M9.74576 7.03817C10.4995 7.03817 11.0791 6.79728 11.4693 6.3235C11.8391 5.87373 12.0186 5.24617 12.0186 4.40261C12.0186 3.55906 11.8338 2.93239 11.4693 2.48884C11.0791 2.01417 10.4995 1.77417 9.74576 1.77417C8.99198 1.77417 8.41954 2.01506 8.02932 2.48884C7.66487 2.9315 7.47998 3.57595 7.47998 4.40261C7.47998 5.22928 7.65954 5.87373 8.02932 6.3235C8.41954 6.79817 8.99643 7.03817 9.74576 7.03817ZM8.85332 3.16617C9.03287 2.94661 9.32532 2.84084 9.74576 2.84084C10.1662 2.84084 10.4649 2.9475 10.6453 3.16617C10.8489 3.41328 10.952 3.82928 10.952 4.40261C10.952 4.97595 10.8489 5.39906 10.6453 5.64617C10.4649 5.86484 10.1715 5.9715 9.74576 5.9715C9.31998 5.9715 9.03376 5.86484 8.85332 5.64617C8.64976 5.39906 8.54665 4.98039 8.54665 4.40261C8.54665 3.82484 8.64976 3.41328 8.85332 3.16617ZM11.7369 7.46573H7.76087C7.2222 7.46573 6.65687 7.69417 6.18043 8.08795H3.67731C2.54576 8.08795 1.51465 9.23906 1.51465 10.5031V13.0213H2.58132V10.5031C2.58132 9.77684 3.18398 9.15461 3.67731 9.15461H5.33954C5.13598 9.56973 5.0142 10.0435 5.0142 10.5555V13.9768H6.08087V10.5555C6.08087 9.43461 6.99998 8.53239 7.76087 8.53239H8.58043L8.21332 13.2693L9.72976 14.2257L11.3004 13.3662L10.8542 8.5315H11.7369C12.4978 8.5315 13.4169 9.43373 13.4169 10.5546V13.9759H14.4835V10.5546C14.4835 8.78661 13.0338 7.46484 11.7369 7.46484V7.46573ZM10.1742 12.7671L9.76798 12.9893L9.3262 12.7102L9.65065 8.53239H9.78309L10.1742 12.7671ZM5.14309 7.73239C5.73865 7.73239 6.19998 7.53773 6.51465 7.15461C6.80798 6.79728 6.9502 6.30573 6.9502 5.6515C6.9502 4.99728 6.80354 4.50573 6.51376 4.15373C6.19909 3.77061 5.73687 3.57595 5.1422 3.57595C4.54754 3.57595 4.07998 3.77061 3.76532 4.15373C3.47554 4.50573 3.32887 5.00973 3.32887 5.6515C3.32887 6.29328 3.47109 6.79728 3.76443 7.15461C4.07909 7.53773 4.54309 7.73239 5.14132 7.73239H5.14309ZM4.5902 4.83106C4.62843 4.78484 4.74487 4.64261 5.14309 4.64261C5.54132 4.64261 5.65243 4.78395 5.69065 4.83106C5.81687 4.98484 5.88443 5.26839 5.88443 5.6515C5.88443 6.03461 5.81776 6.3235 5.69065 6.47728C5.65243 6.5235 5.53598 6.66573 5.14309 6.66573C4.7502 6.66573 4.62843 6.52439 4.5902 6.47728C4.46398 6.3235 4.39643 6.03817 4.39643 5.6515C4.39643 5.26484 4.46309 4.98484 4.5902 4.83106Z" fill="#7A9A01"/>
</g>
<defs>
<clipPath id="clip0_301_13271">
<rect width="16" height="16" fill="white"/>
</clipPath>
</defs>
</svg>
