<svg width="16" height="16" viewBox="0 0 16 16" fill="none" xmlns="http://www.w3.org/2000/svg">
<g clip-path="url(#clip0_301_13286)">
<rect width="16" height="16" fill="white"/>
<path d="M3.75732 7.14566C3.46399 6.78833 3.32177 6.29677 3.32177 5.64255C3.32177 5.37233 3.34932 5.12877 3.40088 4.90833L4.40088 5.90833C4.42577 6.16077 4.4871 6.35188 4.58221 6.46833C4.62043 6.51455 4.73688 6.65677 5.1351 6.65677H5.14843L6.0231 7.53144C5.77243 7.65855 5.47643 7.72433 5.1351 7.72433C4.53599 7.72433 4.07288 7.52966 3.75821 7.14655H3.75732V7.14566ZM8.96443 7.45499L10.9289 9.41855L10.8462 8.52166H11.7289C12.4898 8.52166 13.4089 9.42388 13.4089 10.5448V11.8985L14.4755 12.9652V10.5448C14.4755 8.77677 13.0258 7.45499 11.7289 7.45499H8.96443ZM6.17155 8.07722H3.66843C2.53688 8.07722 1.50577 9.22833 1.50577 10.4923V13.0105H2.57243V10.4923C2.57243 9.7661 3.1751 9.14388 3.66843 9.14388H5.33066C5.1271 9.55899 5.00532 10.0328 5.00532 10.5448V13.9661H6.07199V10.5448C6.07199 9.70299 6.5911 8.98388 7.17155 8.67899L6.39999 7.90744C6.32177 7.96077 6.24621 8.01677 6.17155 8.0781V8.07722ZM10.056 11.5617L10.1662 12.7554L9.75999 12.9777L9.31821 12.6985L9.45332 10.959L8.46043 9.9661L8.20532 13.2577L9.72177 14.2141L11.2924 13.3545L11.2355 12.7412L10.0551 11.5608H10.056V11.5617ZM6.50666 4.14477C6.19199 3.76166 5.72977 3.56699 5.1351 3.56699C5.11555 3.56699 5.09777 3.56877 5.0791 3.56966L6.93688 5.42744C6.90666 4.88788 6.76355 4.45677 6.50755 4.14477H6.50666ZM8.02043 6.31366C7.65066 5.86388 7.4711 5.23633 7.4711 4.39277C7.4711 3.54921 7.65599 2.92255 8.02043 2.47899C8.41066 2.00433 8.98755 1.76433 9.73688 1.76433C10.4862 1.76433 11.0702 2.00521 11.4604 2.47899C11.8249 2.92166 12.0098 3.5661 12.0098 4.39277C12.0098 5.21944 11.8302 5.86388 11.4604 6.31366C11.0702 6.78833 10.4907 7.02833 9.73688 7.02833C8.9831 7.02833 8.41066 6.78744 8.02043 6.31366ZM8.53777 4.39277C8.53777 4.97055 8.64088 5.38921 8.84443 5.63633C9.02488 5.85499 9.31643 5.96166 9.73688 5.96166C10.1573 5.96166 10.456 5.85499 10.6364 5.63633C10.84 5.38921 10.9431 4.97055 10.9431 4.39277C10.9431 3.81499 10.84 3.40344 10.6364 3.15633C10.456 2.93677 10.1627 2.83099 9.73688 2.83099C9.3111 2.83099 9.02488 2.93766 8.84443 3.15633C8.64088 3.40344 8.53777 3.81944 8.53777 4.39277ZM14.3369 13.583L2.41688 1.6621C2.20888 1.4541 1.8711 1.4541 1.66221 1.6621C1.45332 1.8701 1.45421 2.20788 1.66221 2.41677L13.5831 14.3377C13.6871 14.4417 13.824 14.4941 13.96 14.4941C14.096 14.4941 14.2329 14.4417 14.3369 14.3377C14.5449 14.1297 14.5449 13.7919 14.3369 13.583Z" fill="#E87722"/>
</g>
<defs>
<clipPath id="clip0_301_13286">
<rect width="16" height="16" fill="white"/>
</clipPath>
</defs>
</svg>
