<svg width="16" height="16" viewBox="0 0 16 16" fill="none" xmlns="http://www.w3.org/2000/svg">
<g clip-path="url(#clip0_301_13355)">
<rect width="16" height="16" fill="white"/>
<path d="M14.5084 3.90121V12.079C14.5084 12.3261 14.3404 12.5332 14.1129 12.5937L13.0649 11.5457H13.4427V5.19899L10.0995 8.58033L9.34488 7.82566L12.6987 4.43455H5.95288L4.88621 3.36788H13.9751V3.36966C14.0435 3.36966 14.112 3.38121 14.1778 3.40877C14.3778 3.49055 14.5084 3.6861 14.5084 3.9021V3.90121ZM2.55821 11.5457V5.19899L7.62399 10.3163C7.72444 10.4177 7.86044 10.4745 8.00266 10.4745C8.14488 10.4745 8.28177 10.4177 8.38132 10.3163L8.59732 10.0985L1.88799 3.38744C1.86577 3.39366 1.84355 3.39988 1.82221 3.40877C1.62221 3.49055 1.49155 3.6861 1.49155 3.9021V12.079C1.49155 12.3732 1.73066 12.6123 2.02488 12.6123H11.1138L10.0471 11.5457H2.55821ZM2.42666 1.6621C2.21866 1.4541 1.88088 1.4541 1.67199 1.6621C1.4631 1.8701 1.46399 2.20788 1.67199 2.41677L13.5929 14.3377C13.6969 14.4417 13.8338 14.4941 13.9698 14.4941C14.1058 14.4941 14.2427 14.4417 14.3467 14.3377C14.5547 14.1297 14.5547 13.7919 14.3467 13.583L2.42666 1.6621Z" fill="#E87722"/>
</g>
<defs>
<clipPath id="clip0_301_13355">
<rect width="16" height="16" fill="white"/>
</clipPath>
</defs>
</svg>
