<svg width="16" height="16" viewBox="0 0 16 16" fill="none" xmlns="http://www.w3.org/2000/svg">
<g clip-path="url(#clip0_302_13374)">
<rect width="16" height="16" fill="white"/>
<path d="M14.4871 3.75739L14.4631 3.53783L11.9156 1.49072L9.536 5.50761L10.984 6.95561C10.8631 7.35294 10.4862 8.2445 9.36533 9.36539C8.24178 10.4889 7.34933 10.8649 6.95555 10.9849L5.50667 9.53606L1.48978 11.9156L3.53689 14.4632L3.75644 14.4872C3.79022 14.4907 3.97778 14.5094 4.28444 14.5094C5.51467 14.5094 8.65422 14.2081 11.4311 11.4321C14.8996 7.96361 14.5049 3.92717 14.4862 3.75739H14.4871ZM10.6782 10.6783C8.008 13.3485 4.90578 13.4605 4.08267 13.4383L3.09333 12.2072L5.33955 10.8765L6.58666 12.1236L6.83555 12.1014C6.98222 12.0881 8.32266 11.9192 10.1209 10.1209C11.9191 8.32272 12.088 6.98228 12.1013 6.83561L12.1236 6.58672L10.8764 5.33961L12.2071 3.09339L13.4382 4.08272C13.4604 4.9085 13.3476 8.00983 10.6791 10.6792L10.6782 10.6783Z" fill="#7A9A01"/>
</g>
<defs>
<clipPath id="clip0_302_13374">
<rect width="16" height="16" fill="white"/>
</clipPath>
</defs>
</svg>
