<svg width="16" height="16" viewBox="0 0 16 16" fill="none" xmlns="http://www.w3.org/2000/svg">
<g clip-path="url(#clip0_302_13383)">
<rect width="16" height="16" fill="white"/>
<path d="M10.984 6.95561L9.536 5.50761L11.9156 1.49072L14.4631 3.53783L14.4871 3.75739C14.504 3.91472 14.8427 7.37872 12.1502 10.6418L11.3911 9.88272C13.3671 7.42228 13.4569 4.82672 13.4373 4.08183L12.2062 3.0925L10.8756 5.33872L12.1227 6.58583L12.1004 6.83472C12.0889 6.95917 11.9653 7.93961 10.8364 9.32806L10.0764 8.56806C10.6587 7.82761 10.8933 7.2525 10.984 6.95472V6.95561ZM4.08178 13.4374L3.09244 12.2063L5.33867 10.8756L6.58578 12.1227L6.83467 12.1005C6.95911 12.0889 7.93955 11.9654 9.328 10.8365L8.568 10.0765C7.82578 10.6605 7.25067 10.8943 6.95555 10.9841L5.50667 9.53517L1.48978 11.9147L3.53689 14.4623L3.75644 14.4863C3.79022 14.4898 3.97778 14.5085 4.28444 14.5085C5.39911 14.5085 8.08178 14.2614 10.6409 12.1494L9.88089 11.3894C7.41955 13.3663 4.82311 13.4561 4.08 13.4356L4.08178 13.4374ZM2.42667 1.67206C2.21867 1.46406 1.88089 1.46406 1.672 1.67206C1.46311 1.88006 1.464 2.21783 1.672 2.42672L13.5929 14.3467C13.6969 14.4507 13.8338 14.5032 13.9698 14.5032C14.1058 14.5032 14.2427 14.4507 14.3467 14.3467C14.5547 14.1387 14.5547 13.8009 14.3467 13.5921L2.42667 1.67206Z" fill="#E87722"/>
</g>
<defs>
<clipPath id="clip0_302_13383">
<rect width="16" height="16" fill="white"/>
</clipPath>
</defs>
</svg>
