<svg width="16" height="16" viewBox="0 0 16 16" fill="none" xmlns="http://www.w3.org/2000/svg">
<g clip-path="url(#clip0_301_13313)">
<rect width="16" height="16" fill="white"/>
<path d="M4.89689 3.39816L4.02667 2.52794L7.99023 1.46216L13.2178 2.86749V9.19016C13.2178 9.92527 13.0018 10.5813 12.6604 11.1617L11.872 10.3733C12.0471 10.0088 12.1511 9.61416 12.1511 9.19016V3.68527L8.52356 2.71016V7.02482L7.45689 5.95816V2.71016L4.89689 3.39816ZM8.52356 13.1724V10.0417L7.45689 8.97505V13.1724C6.22667 12.6026 3.82934 11.2302 3.82934 9.19016V5.34749L2.76267 4.28082V9.19016C2.76267 12.6773 7.60889 14.4044 7.81511 14.4764L7.99023 14.5377L8.16534 14.4764C8.28178 14.4355 9.87289 13.8693 11.2391 12.7573L10.48 11.9982C9.80089 12.5315 9.05423 12.927 8.52356 13.1724ZM14.3369 13.5928L2.41689 1.67194C2.20889 1.46394 1.87111 1.46394 1.66223 1.67194C1.45423 1.87994 1.45423 2.21771 1.66223 2.4266L13.5831 14.3466C13.6871 14.4506 13.824 14.503 13.96 14.503C14.096 14.503 14.2329 14.4506 14.3369 14.3466C14.5449 14.1386 14.5449 13.8008 14.3369 13.5919V13.5928Z" fill="#E87722"/>
</g>
<defs>
<clipPath id="clip0_301_13313">
<rect width="16" height="16" fill="white"/>
</clipPath>
</defs>
</svg>
