<svg width="16" height="16" viewBox="0 0 16 16" fill="none" xmlns="http://www.w3.org/2000/svg">
<g clip-path="url(#clip0_302_13591)">
<rect width="16" height="16" fill="white"/>
<path d="M11.8356 5.93953V3.47019H4.98845L6.05512 4.53686H10.7689V9.25064L11.8356 10.3173V10.0409L14.5333 12.4497V3.53064L11.8356 5.93953ZM13.4667 10.0675L11.8356 8.61153V7.36975L13.4667 5.91375V10.0684V10.0675ZM9.9449 11.4435L11.0116 12.5102H1.46667V3.47019H1.97156L3.03823 4.53686H2.53334V11.4435H9.9449ZM14.3467 13.5831C14.5547 13.7911 14.5547 14.1289 14.3467 14.3377C14.2427 14.4417 14.1058 14.4942 13.9698 14.4942C13.8338 14.4942 13.6969 14.4417 13.5929 14.3377L1.67201 2.41686C1.46401 2.20886 1.46401 1.87108 1.67201 1.66219C1.88001 1.4533 2.21779 1.45419 2.42667 1.66219L14.3467 13.5831Z" fill="#E87722"/>
</g>
<defs>
<clipPath id="clip0_302_13591">
<rect width="16" height="16" fill="white"/>
</clipPath>
</defs>
</svg>
